<svg xmlns:dc="http://purl.org/dc/elements/1.1/" xmlns:cc="http://creativecommons.org/ns#" xmlns:rdf="http://www.w3.org/1999/02/22-rdf-syntax-ns#" xmlns:svg="http://www.w3.org/2000/svg" xmlns="http://www.w3.org/2000/svg" id="svg400001" viewBox="0 0 200 200" height="200px" width="200px" version="1.1">
  <metadata id="metadata400007">
    <rdf:RDF>
      <cc:Work rdf:about="">
        <dc:format>image/svg+xml</dc:format>
        <dc:type rdf:resource="http://purl.org/dc/dcmitype/StillImage"/>
      </cc:Work>
    </rdf:RDF>
  </metadata>
  <defs id="defs400005"/>
  <g id="monogram" style="font-style:normal;font-weight:800;font-size:120px;line-height:1;font-family:'Montserrat ExtraBold Alt1';font-variant-ligatures:none;text-align:center;dominant-baseline:middle;text-anchor:middle;fill:#3d273c" aria-label="P">
    <path id="path400009" style="font-style:normal;font-weight:800;font-size:120px;line-height:1;font-family:'Montserrat ExtraBold Alt1';font-variant-ligatures:none;text-align:center;dominant-baseline:middle;text-anchor:middle;fill:#3d273c" d="m 135.38031,63.16 c -3.12,-4.68 -7.44,-8.28 -12.96,-10.8 -5.64,-2.52 -12.24,-3.84 -19.8,-3.84 H 64.220313 v 18.72 h 36.959997 c 4.8,0 8.52,1.08 11.04,3.24 2.4,2.16 3.72,5.28 3.72,9.12 0,3.96 -1.32,6.96 -3.72,9.12 -2.52,2.16 -6.24,3.12 -11.04,3.12 H 64.220313 v 40.68 h 23.759999 v -21.96 h 14.639998 c 7.56,0 14.16,-1.2 19.8,-3.72 5.52,-2.52 9.84,-6.12 12.96,-10.8 3,-4.56 4.56,-10.08 4.56,-16.44 0,-6.24 -1.56,-11.76 -4.56,-16.44 z"/>
  </g>
</svg>